HIERARCHY
ROOT Hips
{
	OFFSET 0.00000 0.00000 0.00000
	CHANNELS 6 Xposition Yposition Zposition Yrotation Zrotation Xrotation 
	JOINT Lumbar
	{
		OFFSET 0 0 0
		CHANNELS 3 Zrotation Xrotation Yrotation
		JOINT Neck
		{
			OFFSET 0.00 0.2701 0.00
			CHANNELS 3 Zrotation Xrotation Yrotation
			End Site
			{
				OFFSET 0.00 0.1379 0.00
			}
		}
		JOINT RightShoulder
		{
			OFFSET 0.0119 0.2289 0.1181
			CHANNELS 3 Zrotation Xrotation Yrotation
			JOINT RightElbow
			{
				OFFSET 0.00 -0.1475 0.00
				CHANNELS 2 Zrotation Yrotation
				JOINT RightWrist
				{
					OFFSET 0.00 -0.1605 0.00
					CHANNELS 2 Zrotation Xrotation
					End Site
					{
						OFFSET 0.0040 -0.1068 0.0006
					}
				}
			}
		}
		JOINT LeftShoulder
		{
			OFFSET 0.0119 0.2289 -0.1181
			CHANNELS 3 Zrotation Xrotation Yrotation
			JOINT LeftElbow
			{
				OFFSET 0.00 -0.1475 0.00
				CHANNELS 2 Zrotation Yrotation
				JOINT LeftWrist
				{
					OFFSET 0.00 -0.1605 0.00
					CHANNELS 2 Zrotation Xrotation
					End Site
					{
						OFFSET 0.0040 -0.1068 -0.0006
					}
				}
			}
		}
	}
	JOINT RightHip
	{
		OFFSET 0.0316 -0.0424 0.0458
		CHANNELS 3 Zrotation Xrotation Yrotation
		JOINT RightKnee
		{
			OFFSET 0.00 -0.2438 0.00
			CHANNELS 1 Zrotation
			JOINT RightAnkle
			{
				OFFSET 0.00 -0.2449 0.00
				CHANNELS 3 Zrotation Xrotation Yrotation
				End Site
				{
					OFFSET 0.1237 -0.0542 0.0051
				}
			}
		}
	}
	JOINT LeftHip
	{
		OFFSET 0.0316 -0.0424 -0.0458
		CHANNELS 3 Zrotation Xrotation Yrotation
		JOINT LeftKnee
		{
			OFFSET 0.00 -0.2438 0.00
			CHANNELS 1 Zrotation
			JOINT LeftAnkle
			{
				OFFSET 0.00 -0.2449 0.00
				CHANNELS 3 Zrotation Xrotation Yrotation
				End Site
				{
					OFFSET 0.1237 -0.0542 -0.0051
				}
			}
		}
	}
}
MOTION
Frames: 14
Frame Time: 0.02
-0 0.57926 -0 179.77137 0 2.81612 8.80393 -1.12683 -2.45505 -29.93881 1.91573 2.78083 21.74736 -12.99161 5.83347 11.50515 84.94978 0.62737 1.49477 22.92786 5.14053 -2.51859 8.71242 -73.10769 -6.41891 -0.65413 0.21411 2.50599 8.84006 -21.55067 12.52907 -10.29238 -13.31944 0.26824 -3.98062 -5.62034 -16.21837 9.7436 7.64003 11.69182
0.00022 0.57929 4e-05 179.70546 0 2.81577 8.74967 -1.13765 -2.51687 -29.88885 1.9224 2.85062 21.65535 -13.01784 5.70921 11.49551 84.7706 0.49174 1.49953 22.84809 5.08061 -2.26768 8.68655 -73.08793 -6.59363 -0.5925 0.24532 2.50845 8.91472 -21.55822 12.51508 -10.27179 -13.33731 0.26085 -3.99064 -5.63394 -16.1772 9.71331 7.63916 11.75854
0.00044 0.57931 8e-05 179.63982 0 2.81531 8.69564 -1.14843 -2.57835 -29.83985 1.92937 2.92027 21.56468 -13.04424 5.58599 11.48598 84.59219 0.35701 1.50418 22.76953 5.02029 -2.01836 8.6607 -73.06829 -6.76665 -0.53203 0.27641 2.51098 8.98904 -21.56561 12.50107 -10.25118 -13.35501 0.25368 -4.00047 -5.64703 -16.13638 9.68322 7.63828 11.82458
0.00067 0.57934 0.00011 179.57467 0 2.81464 8.64202 -1.15928 -2.63901 -29.79354 1.93749 2.98998 21.47786 -13.07106 5.46354 11.47655 84.41529 0.22443 1.50851 22.69423 4.95755 -1.77369 8.63498 -73.0489 -6.93466 -0.47579 0.30741 2.51368 9.06275 -21.57277 12.487 -10.2303 -13.37244 0.24706 -4.00979 -5.65819 -16.09642 9.65361 7.63747 11.88849
0.00088 0.57936 0.00015 179.50697 0 2.81538 8.58622 -1.16995 -2.70395 -29.7322 1.93939 3.05931 21.3699 -13.09502 5.33445 11.46631 84.23058 0.08031 1.51457 22.6007 4.90732 -1.50526 8.60894 -73.0281 -7.12933 -0.39736 0.339 2.51533 9.13975 -21.58152 12.47347 -10.21084 -13.39157 0.23721 -4.022 -5.67956 -16.0517 9.62142 7.63641 11.9636
0.00111 0.57939 0.00019 179.44471 0 2.81294 8.53509 -1.18085 -2.75979 -29.70322 1.95455 3.12942 21.30728 -13.12546 5.22124 11.45801 84.06248 -0.03918 1.51694 22.54645 4.8309 -1.28677 8.58333 -73.01036 -7.26735 -0.36581 0.36925 2.51928 9.20969 -21.58664 12.45864 -10.1884 -13.40689 0.23439 -4.02797 -5.67933 -16.01727 9.59472 7.63583 12.01503
0.00137 0.57942 0.00021 179.39626 0 2.80285 8.49602 -1.1937 -2.79118 -29.76178 2.00709 3.20332 21.36828 -13.17166 5.13564 11.45318 83.93809 -0.09195 1.50923 22.59785 4.67547 -1.21071 8.56053 -73.00063 -7.24691 -0.46933 0.3968 2.52921 9.26157 -21.58363 12.44113 -10.15663 -13.41358 0.25023 -4.01735 -5.61706 -16.0099 9.58299 7.6371 11.99931
0.00164 0.57944 0.00023 179.3534 0 2.78929 8.46178 -1.20652 -2.81331 -29.85333 2.07293 3.27779 21.47535 -13.22491 5.06871 11.45063 83.83075 -0.11964 1.49782 22.68936 4.4946 -1.18468 8.53787 -72.99416 -7.16914 -0.61957 0.42278 2.54154 9.30621 -21.57654 12.42213 -10.12197 -13.41609 0.27334 -4.00031 -5.53334 -16.01323 9.57683 7.6388 11.96001
0.0019 0.57947 0.00025 179.30882 0 2.77656 8.42582 -1.21854 -2.83925 -29.93115 2.13227 3.351 21.56256 -13.27636 5.00405 11.44836 83.71685 -0.15806 1.488 22.76456 4.32963 -1.13206 8.514 -72.98636 -7.11954 -0.74457 0.44887 2.55307 9.35318 -21.5702 12.40317 -10.08933 -13.41934 0.29361 -3.98575 -5.46096 -16.01244 9.56819 7.63995 11.93255
0.00217 0.5795 0.00026 179.26109 0 2.76706 8.38786 -1.2341 -2.86681 -30.00396 2.19355 3.42836 21.64554 -13.32171 4.89511 11.44074 83.59787 -0.19946 1.47839 22.83213 4.14667 -1.09354 8.4948 -72.97753 -7.06305 -0.88528 0.47765 2.56344 9.40385 -21.56884 12.38686 -10.05389 -13.42755 0.31185 -3.97298 -5.38197 -16.00821 9.55924 7.6425 11.9002
0.00243 0.57953 0.00029 179.22086 0 2.74996 8.3552 -1.24215 -2.88886 -30.09465 2.25393 3.4973 21.74787 -13.38167 4.88146 11.44455 83.49361 -0.22849 1.46766 22.92451 3.99478 -1.04029 8.4661 -72.97208 -7.00475 -1.00588 0.50028 2.5767 9.44553 -21.55573 12.36474 -10.0234 -13.42437 0.33615 -3.95504 -5.3115 -16.01406 9.55238 7.64238 11.87263
0.00269 0.5796 0.00034 179.20332 0 2.7132 8.33635 -1.23039 -2.89744 -30.23017 2.30864 3.54196 21.89584 -13.47825 5.13828 11.4815 83.42513 -0.23098 1.45311 23.08105 3.93765 -0.90923 8.40949 -72.97135 -6.97836 -1.04584 0.50797 2.59796 9.46063 -21.51467 12.32635 -10.00897 -13.39117 0.37454 -3.92371 -5.27105 -16.04207 9.54884 7.63341 11.86253
0.00296 0.57968 0.0004 179.19242 0 2.66883 8.32267 -1.21086 -2.90087 -30.38204 2.36198 3.57831 22.06112 -13.58966 5.48832 11.52955 83.37105 -0.22146 1.43777 23.26032 3.91208 -0.76547 8.34362 -72.97466 -6.94855 -1.06603 0.50926 2.62186 9.46767 -21.46132 12.28228 -9.99932 -13.3465 0.41891 -3.88756 -5.23956 -16.08039 9.54742 7.62202 11.85835
0.00322 0.57975 0.00046 179.17643 0 2.62766 8.30637 -1.19431 -2.90701 -30.52397 2.41585 3.61899 22.21606 -13.69555 5.78757 11.57102 83.31078 -0.21669 1.42395 23.42539 3.87037 -0.64483 8.28308 -72.97855 -6.90446 -1.10482 0.51235 2.64417 9.48065 -21.41119 12.2412 -9.9864 -13.30688 0.46117 -3.85401 -5.2033 -16.11603 9.54572 7.61263 11.85245
